PathFileType	4	(X/Y/Z)	C:/Users/beibeiliu/ov580/test_trc/capture2\sequence.18_training_dense_left.trc
DataRate	CameraRate	NumFrames	NumMarkers	Units	OrigDataRate	OrigDataStartFrame	OrigNumFrames
120	120	18	19	mm	120	299	398
Frame#	Time	ThumbCMC			ThumbMCP			ThumbIP			ThumbTip			IndexMCP			IndexPIP			IndexTip			MiddleMCP			MiddlePIP			MiddleTip			RingMCP			RingPIP			RingTip			PinkyMCP			PinkyPIP			PinkyTip			BackHand1			BackHand2			BackHand3	
		X0	Y0	Z0	X1	Y1	Z1	X2	Y2	Z2	X3	Y3	Z3	X4	Y4	Z4	X5	Y5	Z5	X6	Y6	Z6	X7	Y7	Z7	X8	Y8	Z8	X9	Y9	Z9	X10	Y10	Z10	X11	Y11	Z11	X12	Y12	Z12	X13	Y13	Z13	X14	Y14	Z14	X15	Y15	Z15	X16	Y16	Z16	X17	Y17	Z17	X18	Y18	Z18	
298	2.48333	-181.323	94.0101	31.5278	-173.082	110.63	10.6409	-180.255	129.072	-10.525	-186.449	140.075	-27.788	-206.204	125.407	-29.0554	-183.626	113.221	-43.7418	-174.001	93.4066	-17.0661	-210.207	109.179	-37.7032	-184.678	94.057	-45.5277	-184.499	75.1294	-8.92373	-214.925	91.0291	-41.0313	-187.046	76.2962	-40.0065	-187.324	66.1927	-11.2966	-220.87	73.5945	-39.013	-193.721	60.3466	-38.2076	-189.416	50.9409	-10.5584	-236.563	75.488	11.6328	-228.666	58.1664	36.2169	-217.086	89.818	33.6763	
299	2.49167	-171.308	90.6667	34.2006	-162.779	102.265	14.2889	-161.876	127.316	-5.22562	-169.473	142.31	-25.4734	-191.351	129.644	-24.0389	-173.916	116.479	-42.354	-164.477	93.3198	-22.7739	-200.757	114.508	-35.5475	-178.959	96.8485	-44.4114	-174.571	77.5066	-13.0323	-212.558	98.3635	-36.2799	-187.432	77.4807	-41.2228	-183.257	69.1711	-11.8029	-221.991	82.6374	-36.5738	-196.516	70.6072	-40.5884	-187.909	56.4396	-7.67633	-232.573	86.4222	15.7645	-228.654	66.6384	37.6825	-207.485	94.5134	36.7963	
300	2.5	-165.496	80.5257	39.3185	-154.128	100.864	16.2841	-151.373	119.445	-0.190006	-161.249	131.575	-23.5485	-182.811	131.911	-18.3045	-163.1	121.925	-38.7984	-158.473	91.3684	-23.4813	-192.791	119.283	-29.7569	-172.813	98.7696	-42.2698	-170.142	77.9754	-13.3715	-203.452	106.058	-35.6193	-183.826	85.7085	-41.436	-183.072	68.9348	-7.85659	-214.449	91.8002	-36.542	-194.826	72.5366	-40.4455	-188.114	58.5515	-13.6201	-224.785	92.6977	18.7801	-223.878	75.435	40.5006	-202.589	95.456	40.0947	
301	2.50833	-163.494	78.5726	40.0112	-146.764	96.953	19.6738	-142.639	113.497	0.174908	-162.172	117.214	-19.6928	-169.124	132.096	-8.94565	-152.483	123.649	-34.0758	-147.823	91.2255	-24.4787	-183.327	122.595	-22.1216	-165.899	97.6197	-39.2764	-169.688	75.442	-13.6291	-193.922	111.113	-28.2999	-179.085	85.2335	-41.1213	-176.599	71.04	-7.1976	-209.124	98.5956	-33.8654	-190.254	76.0637	-39.0905	-185.624	60.2208	-12.8815	-221.608	95.9578	19.6782	-223.018	77.1062	41.5918	-194.104	97.479	45.146	
302	2.51667	-157.783	74.9489	44.5734	-139.663	92.7351	23.1466	-138.446	107.44	4.27683	-162.811	110.605	-19.8036	-154.647	131.654	-2.47942	-141.105	122.431	-29.9181	-142.137	85.9181	-21.9977	-172.651	122.901	-21.9202	-157.091	98.7782	-36.8595	-159.995	75.0862	-12.9748	-184.229	112.651	-29.6935	-173.492	86.4537	-40.039	-174.113	69.2378	-6.68983	-200.3	101.59	-30.3864	-182.359	79.6055	-36.9637	-183.379	61.1492	-10.8601	-215.229	98.775	22.3162	-221.169	76.9726	40.5384	-188.563	93.2969	48.1073	
303	2.525	-156.719	70.4838	45.8584	-134.62	88.3091	27.7539	-133.209	103.864	7.46149	-150.971	110.333	-16.3343	-151.024	128.985	-1.75441	-136.121	116.033	-28.536	-137.804	84.7763	-22.0744	-163.004	123.142	-20.7584	-152.449	96.9043	-35.3334	-155.327	73.7231	-8.21196	-182.033	111.988	-26.0423	-164.172	89.3365	-36.4627	-169.35	68.9587	-8.3741	-194.088	103.806	-26.5003	-178.593	77.3867	-36.2079	-180.156	62.4411	-11.6329	-209.009	102.154	21.341	-218.324	80.7875	40.6758	-186.106	92.4753	48.6505	
304	2.53333	-154.508	69.5976	45.8784	-129.958	83.2762	29.784	-127.19	102.883	10.6331	-142.658	111.169	-11.8514	-144.756	126.036	-0.680662	-131.405	113.178	-26.3161	-136.595	81.8002	-19.0409	-161.691	120.04	-17.5969	-149.449	99.0812	-35.2087	-156.211	70.5311	-8.59172	-173.347	111.934	-26.1977	-158.971	85.7113	-33.6687	-165.855	67.4349	-10.2489	-189.804	103.42	-28.0729	-174.311	80.1648	-33.8403	-176.704	62.2714	-7.80359	-204.668	100.52	27.1538	-209.69	79.1181	43.1603	-178.984	92.897	50.9334	
305	2.54167	-150.994	70.423	45.6125	-132.145	79.6657	28.3082	-116.836	100.943	13.5943	-120.162	117.507	-8.60239	-138.146	125.007	-3.40572	-129.533	110.654	-27.3152	-132.986	76.8911	-12.1851	-159.358	118.885	-15.622	-144.531	96.1624	-33.4479	-150.036	69.034	-6.12357	-173.084	110.916	-25.3556	-161.959	84.8574	-37.2051	-162.673	66.9759	-7.31044	-191.257	103.152	-26.8777	-173.053	77.9696	-34.6492	-175.024	62.365	-4.35467	-201.955	100.26	24.9502	-211.056	82.0879	42.3132	-178.733	91.2593	51.0159	
306	2.55	-149.257	67.0576	44.5309	-130.154	79.8049	23.6278	-114.5	100.748	8.98077	-107.964	114.721	-6.03259	-138.388	121.544	-6.51124	-127.22	102.006	-28.0274	-132.863	74.6288	-12.3015	-154.691	116.69	-18.6896	-142.824	91.2669	-34.2228	-148.992	66.2715	-5.01181	-169.685	107.84	-29.002	-156.306	78.7543	-32.8726	-163.923	63.7547	-7.27887	-184.6	101.433	-26.2681	-170.087	74.5281	-31.9945	-175.587	60.1622	-5.10678	-198.018	102.303	23.2391	-207.33	81.1467	42.1427	-178.196	93.106	47.8945	
307	2.55833	-142.892	68.6326	43.6545	-121.982	75.5276	21.784	-111.79	93.7254	3.45907	-104.23	109.867	-14.3973	-133.176	119.3	-10.6725	-124.343	98.2766	-32.5679	-132.362	70.8375	-17.8661	-152.33	111.329	-24.8369	-141.082	81.5759	-37.0688	-148.262	62.2695	-8.79338	-163.456	103.31	-31.4735	-153.452	74.4248	-34.0673	-163.656	60.5127	-7.25966	-181.834	94.4431	-33.3951	-168.766	68.596	-33.7616	-174.771	57.9975	-1.13906	-196.795	100.254	18.3324	-202.463	82.9123	39.2039	-171.653	94.5386	46.4866	
308	2.56667	-140.657	69.8584	35.1607	-119.822	70.4327	15.4898	-104.181	83.9044	-5.15521	-99.3358	94.634	-24.4533	-127.626	110.733	-19.9169	-117.494	86.4854	-39.2855	-129.897	62.1369	-21.3145	-148.235	104.514	-31.8244	-138.561	74.4288	-41.0917	-148.781	54.8593	-12.9298	-163.095	93.1533	-39.0509	-155.75	64.0169	-38.0891	-159.309	57.664	-7.10543	-183.122	87.5854	-36.9961	-170.731	57.8769	-31.5174	-174.391	53.3848	-2.16736	-189.456	101.321	14.0835	-200.369	83.48	34.7553	-168.572	95.4341	36.5677	
309	2.575	-134.651	69.3082	29.2999	-119.775	66.8546	6.29533	-104.211	75.5592	-17.3727	-97.54	84.3261	-40.0479	-124.426	99.2263	-31.2879	-122.489	71.0324	-48.0687	-131.386	49.9009	-23.6749	-142.715	92.1892	-40.4629	-137.897	61.7881	-45.5387	-150.364	49.158	-12.4696	-164.273	84.252	-43.3239	-155.083	54.2483	-37.2198	-162.365	54.9343	-2.63474	-176.88	78.4932	-39.9601	-170.88	51.2461	-31.1431	-172.182	54.9124	1.66985	-186.946	102.996	5.51112	-193.377	86.8205	33.9443	-160.042	99.1305	27.7753	
310	2.58333	-131.063	67.3242	25.6882	-114.463	59.8966	1.9346	-107.267	62.8638	-21.0373	-98.8315	65.4039	-44.4209	-122.3	83.119	-41.3718	-126.844	53.2106	-51.9665	-138.123	40.8292	-23.2119	-144.341	76.8632	-47.1583	-146.311	44.9652	-45.7677	-150.853	42.7918	-7.85646	-165.126	71.6625	-46.4841	-160.401	41.9476	-35.9336	-165.823	49.7586	-1.16467	-179.793	67.851	-41.6915	-175.386	42.6364	-25.4847	-172.344	52.3404	2.29189	-182.074	101.084	-0.790351	-182.62	93.3409	29.1873	-151.709	94.9954	24.1253	
311	2.59167	-130.819	62.7116	26.5324	-118.101	52.5747	-0.539368	-104.312	49.7819	-23.831	-105.108	51.7454	-47.6314	-129.222	67.6554	-47.46	-132.278	37.4354	-50.8477	-138.239	29.2419	-18.591	-146.081	64.3563	-48.3822	-153.748	32.5957	-41.4054	-152.477	39.5349	-3.48497	-166.851	60.4335	-45.6224	-168.237	32.1078	-30.3129	-166.164	44.7434	1.20129	-180.684	59.1261	-39.1952	-177.129	36.7021	-21.734	-176.004	51.2773	7.02465	-177.684	97.2079	-4.83293	-177.741	94.2665	29.3065	-143.707	95.0706	14.3512	
312	2.6	-124.902	60.8616	24.4553	-118.208	47.4835	1.56116	-109.981	41.9032	-22.0645	-108.089	39.1476	-48.1196	-128.891	55.3263	-46.7788	-136.104	24.5828	-43.6452	-143.762	26.8783	-10.9706	-153.331	53.8356	-46.9742	-152.576	22.5854	-32.7992	-152.757	37.5864	1.09519	-170.523	49.7727	-43.5813	-168.544	26.0601	-25.5752	-162.924	43.789	3.24054	-184.426	50.7701	-36.3937	-180.372	32.3291	-14.8565	-176.667	48.7426	11.3855	-174.18	93.6863	-7.85611	-177.365	95.6122	26.3804	-144.079	90.2452	15.0124	
313	2.60833	-125.055	58.3004	29.0007	-118.756	42.648	7.48818	-111.37	34.3793	-23.8779	-107.608	28.0957	-44.1762	-130.275	47.9761	-42.9293	-140.748	18.1614	-40.9855	-144.818	22.6071	-6.74862	-150.397	44.4292	-44.8749	-160.857	17.0094	-28.9225	-154.505	34.0638	4.46498	-171.579	41.8117	-40.8711	-175.569	21.6445	-18.3029	-165.215	42.7128	6.89538	-186.966	49.6902	-32.2862	-182.785	27.249	-11.6172	-175.389	49.0038	11.2325	-169.902	91.2172	-10.0916	-174.79	98.3615	24.3411	-141.394	88.6354	11.5269	
314	2.61667	-126.852	59.3423	29.1244	-119.062	39.6245	6.52622	-110.347	28.5514	-16.1246	-111.893	20.8528	-38.3245	-132.78	41.3561	-41.1279	-141.825	11.5857	-34.4609	-143.785	21.6417	-1.75551	-155.225	39.1394	-41.7848	-159.308	11.5008	-25.4684	-155.084	30.1941	6.03752	-176.097	38.4929	-38.1467	-171.597	16.5427	-17.7081	-165.49	37.091	8.57667	-186.06	41.1246	-31.0223	-186.135	22.8134	-9.64459	-177.04	45.8329	15.0251	-174.564	85.6591	-11.898	-176.774	95.8882	22.4686	-145.654	86.6852	7.81291	
315	2.625	-126.094	58.5526	29.1501	-118.602	37.3255	9.68401	-112.291	25.2415	-12.6304	-108.967	14.719	-38.7783	-132.438	29.4019	-40.3438	-138.258	3.95733	-26.7973	-141.164	20.1947	2.60185	-153.407	27.5917	-40.1079	-156.959	4.97549	-18.1309	-156.667	28.7243	9.26093	-172.889	30.5212	-35.4109	-172.067	12.0369	-10.1914	-167.7	35.9149	11.5002	-186.7	34.791	-28.2815	-182.031	19.1151	-3.56281	-175.006	46.481	14.3591	-171.569	81.7963	-10.4216	-177.585	93.63	18.4242	-145.69	85.5037	7.33383	
